<?xml version="1.0" encoding="iso-8859-1"?>
<!-- Generator: Adobe Illustrator 19.0.0, SVG Export Plug-In . SVG Version: 6.00 Build 0)  -->
<svg xmlns="http://www.w3.org/2000/svg" xmlns:xlink="http://www.w3.org/1999/xlink" version="1.1" id="Capa_1" x="0px" y="0px" viewBox="0 0 490.73 490.73" style="enable-background:new 0 0 490.73 490.73;" xml:space="preserve" width="512px" height="512px">
<g>
	<g>
		<g>
			<path d="M490.646,329.371c-0.198-1.583-0.749-3.101-1.611-4.443l-0.064,0l-96-149.333c-3.165-4.969-9.758-6.431-14.727-3.266     c-3.299,2.101-5.183,5.839-4.91,9.741l3.413,51.275l-55.019-9.173h-0.053l-2.016-8.075c-1.189-4.746-5.454-8.075-10.347-8.075     H288v-68.064l15.435-7.723c5.27-2.636,7.404-9.045,4.768-14.315s-9.045-7.404-14.315-4.768l-21.333,10.667     c-3.612,1.81-5.892,5.506-5.888,9.547v74.667h-32v-10.667c5.891,0,10.667-4.776,10.667-10.667s-4.776-10.667-10.667-10.667     h-21.333c-5.891,0-10.667,4.776-10.667,10.667s4.776,10.667,10.667,10.667v10.667h-32V101.365     c0-5.891-4.776-10.667-10.667-10.667H32c-5.891,0-10.667,4.776-10.667,10.667v64H10.667C4.776,165.365,0,170.141,0,176.032     v122.667c0.001,2.829,1.125,5.541,3.125,7.541l8.107,8.107C3.998,323.583,0.046,334.966,0,346.698     c0.035,29.441,23.893,53.298,53.333,53.333H320c29.455-0.109,53.245-24.075,53.136-53.53     c-0.08-21.588-13.165-40.998-33.147-49.169l-1.856-7.605l43.019,8.608l2.912,43.733c0.371,5.614,5.04,9.975,10.667,9.963     c0.442,0,0.884-0.029,1.323-0.085l85.333-10.667C487.232,340.548,491.378,335.216,490.646,329.371z M42.667,112.032H160v85.333     h-10.667v-21.333c0-5.891-4.776-10.667-10.667-10.667c-5.891,0-10.667,4.776-10.667,10.667v32     c0,5.891,4.776,10.667,10.667,10.667H160v21.333h-54.4l-9.707-97.067c-0.589-5.862-5.818-10.136-11.68-9.547     s-10.136,5.818-9.547,11.68l6.688,66.848l-38.688-45.195V112.032z M21.333,186.698h10.336l53.451,62.4l0.213,2.667     c0.55,5.471,5.168,9.628,10.667,9.6h74.667c5.891,0,10.667-4.776,10.667-10.667v-21.333h119.669l16,64H53.333     c-9.097,0.059-18.023,2.474-25.909,7.008l-6.091-6.091V186.698z M352,346.698c0,17.673-14.327,32-32,32H53.333     c-17.673,0-32-14.327-32-32s14.327-32,32-32H320C337.673,314.698,352,329.025,352,346.698z M332.8,266.912     c-0.128,0-0.245,0-0.384,0l-5.045-20.171l50.901,8.533l1.408,21.067L332.8,266.912z M404.597,329.386L397.44,221.93     l64.469,100.267L404.597,329.386z" fill="#0178ab"/>
			<path d="M289.141,346.698c0.206,11.574,9.756,20.789,21.33,20.583c11.574-0.206,20.789-9.756,20.583-21.33     c-0.204-11.431-9.531-20.591-20.964-20.587C298.422,325.488,289.053,335.029,289.141,346.698z" fill="#0178ab"/>
			<path d="M248.384,325.365c-11.78-0.212-21.502,9.166-21.714,20.946s9.166,21.502,20.946,21.714     c11.78,0.212,21.502-9.166,21.714-20.946c0.002-0.127,0.003-0.254,0.003-0.381C269.422,335.029,260.053,325.488,248.384,325.365z     " fill="#0178ab"/>
			<path d="M124.949,325.365c-11.78-0.212-21.502,9.166-21.714,20.946c-0.212,11.78,9.166,21.502,20.946,21.714     c11.78,0.212,21.502-9.166,21.714-20.946c0.002-0.127,0.003-0.254,0.003-0.381C145.988,335.029,136.618,325.488,124.949,325.365z     " fill="#0178ab"/>
			<path d="M63.243,325.365c-11.78-0.212-21.502,9.166-21.714,20.946c-0.212,11.78,9.166,21.502,20.946,21.714     c11.78,0.212,21.502-9.166,21.714-20.946c0.002-0.127,0.003-0.254,0.003-0.381C84.281,335.029,74.911,325.488,63.243,325.365z" fill="#0178ab"/>
			<path d="M186.667,325.365c-11.78-0.212-21.502,9.166-21.714,20.946c-0.212,11.78,9.166,21.502,20.946,21.714     c11.78,0.212,21.502-9.166,21.714-20.946c0.002-0.127,0.003-0.254,0.003-0.381C207.705,335.029,198.335,325.488,186.667,325.365z     " fill="#0178ab"/>
		</g>
	</g>
</g>
<g>
</g>
<g>
</g>
<g>
</g>
<g>
</g>
<g>
</g>
<g>
</g>
<g>
</g>
<g>
</g>
<g>
</g>
<g>
</g>
<g>
</g>
<g>
</g>
<g>
</g>
<g>
</g>
<g>
</g>
</svg>
